<svg width="896" height="703" version="1.1" xmlns="http://www.w3.org/2000/svg" desc="Created with ImageTracer.java version 1.1.2" ><path desc="l 3 p 0" fill="rgb(128,128,128)" stroke="rgb(128,128,128)" stroke-width="1" opacity="1.0" d="M 0.5 0.0 L 896.0 0.5 L 895.5 703.0 L 768.0 702.5 L 842.0 573.5 L 824.5 563.0 L 798.5 621.0 L 798.0 616.5 L 799.0 611.5 L 800.0 602.5 L 804.0 564.5 L 802.5 564.0 L 796.5 567.0 L 796.0 564.5 L 802.0 548.5 L 796.5 545.0 L 783.0 571.5 L 784.5 572.0 L 794.5 568.0 L 795.0 569.5 L 779.5 616.0 L 776.0 627.5 L 773.5 633.0 L 767.5 625.0 L 767.0 632.5 Q 767.8 636.3 765.5 637.0 L 758.0 641.5 Q 761.0 644.5 768.5 643.0 L 774.5 634.0 L 782.0 644.5 L 776.5 645.0 L 773.5 644.0 L 767.5 644.0 L 721.5 695.0 L 719.5 682.0 L 704.5 703.0 L 686.0 702.5 L 686.5 700.0 L 693.5 702.0 L 711.0 672.5 L 708.5 674.0 L 692.5 684.0 L 693.0 682.5 L 700.0 659.5 L 698.5 660.0 L 697.0 659.5 L 703.5 648.0 L 704.0 649.5 L 701.0 658.5 L 702.5 658.0 L 716.0 651.5 L 713.5 637.0 L 710.0 636.5 L 712.5 630.0 Q 711.6 635.4 714.5 637.0 L 731.0 639.5 L 728.0 645.5 L 729.5 646.0 L 741.0 640.5 L 732.0 638.5 L 743.0 619.5 L 748.5 610.0 Q 751.5 608.0 751.0 602.5 L 741.5 590.0 L 735.5 592.0 L 736.0 590.5 L 738.0 586.5 Q 737.5 582.5 740.5 582.0 L 739.0 584.5 Q 738.3 588.3 740.5 589.0 L 746.0 587.5 L 755.0 583.5 L 754.0 566.5 L 767.0 551.5 L 765.5 551.0 L 760.5 552.0 L 762.0 549.5 L 763.5 547.0 L 766.0 548.5 L 767.5 551.0 L 771.0 548.5 L 770.0 569.5 L 771.0 569.5 L 787.0 538.5 L 782.0 535.5 L 796.0 519.5 L 789.5 517.0 L 778.5 524.0 L 776.5 524.0 L 772.0 526.5 L 772.5 528.0 L 775.5 526.0 L 776.0 527.5 Q 774.0 531.2 772.0 529.5 L 772.5 532.0 L 775.5 531.0 L 781.0 534.5 L 777.5 540.0 L 771.5 547.0 L 771.0 542.5 Q 773.8 540.8 772.0 534.5 L 771.0 534.5 L 763.5 546.0 L 760.5 542.0 Q 759.3 544.3 758.0 541.5 L 760.0 541.5 L 758.5 538.0 L 755.0 539.5 L 751.0 542.5 L 752.5 554.0 L 758.5 553.0 L 758.0 554.5 L 753.5 562.0 L 751.5 554.0 L 724.5 560.0 L 724.5 559.0 L 726.0 558.5 L 718.5 555.0 L 717.0 555.5 L 718.0 553.5 L 712.5 550.0 L 712.0 551.5 L 719.5 562.0 L 721.0 561.5 L 722.5 565.0 L 725.5 569.0 L 737.0 585.5 L 730.0 593.5 L 731.5 594.0 L 733.5 593.0 L 732.0 595.5 L 723.5 610.0 L 720.5 604.0 L 716.0 611.5 L 719.5 612.0 L 721.5 611.0 L 722.0 612.5 L 713.5 629.0 L 711.5 626.0 L 708.0 635.5 L 709.0 637.5 L 707.5 640.0 L 707.0 638.5 L 708.0 636.5 L 679.0 632.5 L 680.0 621.5 L 678.5 621.0 L 676.5 624.0 L 672.0 621.5 L 671.5 618.0 L 668.5 620.0 L 668.5 618.0 L 655.0 625.5 L 654.5 627.0 L 652.0 626.5 L 654.0 625.5 L 648.5 622.0 L 648.0 624.5 L 649.5 628.0 L 651.0 627.5 L 650.0 630.5 L 654.5 644.0 L 662.0 631.5 Q 659.2 628.8 653.0 629.5 L 656.0 627.5 L 656.5 626.0 L 658.0 626.5 L 658.5 628.0 L 662.5 631.0 L 665.0 624.5 L 663.5 625.0 L 661.0 624.5 L 666.5 621.0 L 666.0 622.5 L 666.5 624.0 L 672.5 623.0 L 673.5 631.0 L 675.5 626.0 L 677.0 626.5 L 678.0 632.5 L 676.5 632.0 L 665.5 631.0 L 665.5 632.0 L 671.0 635.5 L 659.5 660.0 L 654.5 645.0 L 640.0 672.5 Q 640.8 674.8 644.5 674.0 L 653.0 674.5 L 644.5 692.0 L 625.5 691.0 L 620.5 700.0 L 611.0 689.5 L 614.5 689.0 L 617.5 690.0 L 625.5 690.0 L 631.0 678.5 L 618.0 677.5 L 599.5 677.0 L 609.5 689.0 L 582.5 687.0 L 583.5 689.0 L 596.0 696.5 L 590.5 697.0 L 585.5 696.0 L 585.5 697.0 L 596.0 702.5 L 587.5 703.0 L 579.5 694.0 L 581.5 695.0 L 582.0 688.5 L 580.5 686.0 L 582.0 685.5 L 581.5 680.0 L 576.5 691.0 L 572.5 686.0 L 578.0 685.5 L 570.5 682.0 L 569.0 682.5 L 566.0 679.5 L 567.0 676.5 L 567.0 674.5 L 579.5 656.0 L 582.0 657.5 L 581.5 652.0 L 579.5 655.0 L 576.0 652.5 L 576.5 650.0 L 581.5 649.0 L 582.5 651.0 L 584.0 648.5 L 582.0 647.5 L 581.5 591.0 L 549.0 621.5 L 559.0 633.5 L 575.0 650.5 L 543.0 663.5 L 560.0 674.5 L 544.0 675.5 L 558.5 682.0 L 560.0 681.5 L 558.5 684.0 L 556.5 683.0 Q 555.0 685.5 549.5 684.0 L 545.5 683.0 L 538.0 682.5 L 541.0 675.5 L 533.5 674.0 L 530.0 675.5 L 533.0 682.5 L 515.5 684.0 L 513.5 684.0 L 512.0 683.5 L 511.0 681.5 L 512.5 682.0 L 527.0 675.5 L 511.0 674.5 L 528.0 663.5 L 496.0 650.5 L 522.0 621.5 L 488.5 590.0 L 488.0 647.5 L 495.0 650.5 L 492.5 655.0 L 490.0 653.5 L 488.5 651.0 L 488.0 658.5 L 490.0 657.5 Q 492.0 654.0 494.0 658.5 L 505.0 675.5 L 505.0 677.5 L 502.0 683.5 L 502.5 685.0 L 501.0 684.5 L 500.5 682.0 L 493.0 685.5 L 499.0 686.5 L 496.0 689.5 Q 494.5 692.5 493.0 689.5 L 488.5 678.0 L 488.0 686.5 L 489.5 686.0 L 491.0 686.5 L 488.5 688.0 L 485.5 687.0 L 478.5 687.0 Q 477.3 689.3 472.5 688.0 L 461.5 689.0 L 471.0 678.5 L 470.5 677.0 L 453.0 677.5 L 440.0 678.5 L 445.5 690.0 L 459.5 689.0 L 460.0 690.5 L 453.0 697.5 Q 451.0 702.0 449.0 698.5 L 445.5 691.0 L 426.5 692.0 L 418.0 674.5 L 425.5 674.0 Q 430.0 675.0 431.0 672.5 L 416.5 645.0 L 411.5 660.0 L 400.0 635.5 L 406.0 631.5 L 403.5 631.0 L 393.5 633.0 L 393.0 629.5 L 394.5 626.0 L 396.0 626.5 L 397.5 631.0 L 398.5 623.0 L 404.5 624.0 L 405.0 622.5 L 404.5 621.0 L 410.0 624.5 L 407.5 625.0 L 406.0 624.5 L 408.5 631.0 L 413.0 627.5 L 413.5 626.0 L 415.0 626.5 L 415.5 628.0 L 418.0 629.5 Q 411.8 628.8 409.0 631.5 L 416.5 644.0 L 421.0 628.5 L 420.5 627.0 L 422.0 627.5 L 423.0 622.5 L 421.5 623.0 L 417.0 625.5 L 419.0 626.5 L 416.5 627.0 L 414.5 624.0 L 402.5 618.0 L 402.5 620.0 L 399.5 618.0 L 398.5 622.0 L 394.5 624.0 L 392.5 621.0 L 391.0 621.5 L 392.0 632.5 L 363.0 636.5 L 364.0 639.5 L 363.0 639.5 L 362.0 636.5 L 362.0 634.5 L 359.5 626.0 L 357.5 629.0 L 349.0 611.5 L 350.5 611.0 L 354.5 612.0 L 354.0 610.5 L 350.5 604.0 L 347.5 610.0 L 337.0 593.5 L 338.5 593.0 L 340.5 594.0 L 336.0 588.5 L 334.0 584.5 L 345.5 569.0 L 350.5 561.0 L 352.0 561.5 L 359.0 550.5 L 356.5 552.0 L 353.0 553.5 L 354.0 555.5 L 352.5 555.0 L 345.0 558.5 L 347.0 559.5 L 343.5 560.0 L 319.5 554.0 L 317.5 562.0 L 312.0 553.5 L 315.5 553.0 L 318.5 554.0 L 320.0 542.5 L 316.0 539.5 L 312.5 538.0 L 311.0 541.5 L 313.0 541.5 L 308.0 544.5 L 307.5 546.0 L 299.5 534.0 L 299.0 541.5 L 300.0 546.5 L 298.0 545.5 L 290.0 534.5 L 297.5 531.0 L 299.0 531.5 L 298.5 529.0 Q 296.8 531.8 295.0 527.5 L 295.5 526.0 L 298.5 528.0 L 299.0 526.5 L 293.5 523.0 L 291.5 524.0 L 281.5 517.0 L 275.0 519.5 L 289.0 535.5 L 284.0 538.5 L 289.0 548.5 L 300.5 570.0 L 301.0 562.5 L 300.0 558.5 L 300.0 548.5 L 302.5 550.0 Q 303.8 552.3 305.0 549.5 L 306.5 547.0 L 309.0 548.5 L 311.0 551.5 L 306.5 552.0 L 304.5 551.0 L 306.0 553.5 L 315.0 564.5 L 317.0 568.5 L 317.0 577.5 Q 314.8 578.8 316.0 583.5 L 325.0 587.5 L 330.5 589.0 Q 332.8 588.3 332.0 584.5 L 330.5 582.0 L 336.0 591.5 L 334.5 591.0 L 329.5 590.0 L 323.0 598.5 L 321.0 601.5 L 320.0 605.5 L 339.0 638.5 L 330.0 640.5 L 342.5 646.0 L 343.0 644.5 L 340.0 639.5 L 348.5 638.0 L 354.5 637.0 L 358.0 635.5 L 358.5 630.0 L 361.0 636.5 L 357.0 637.5 L 356.0 646.5 L 355.0 651.5 L 369.5 659.0 L 370.0 656.5 L 367.0 648.5 L 368.0 648.5 L 374.0 659.5 L 372.5 660.0 L 371.0 659.5 L 379.0 683.5 L 377.5 683.0 L 360.5 672.0 L 360.0 673.5 L 377.5 702.0 L 384.5 700.0 L 385.0 702.5 L 366.5 703.0 L 351.5 682.0 L 349.5 695.0 L 303.5 644.0 L 289.5 645.0 L 290.0 643.5 L 296.5 634.0 L 302.5 643.0 Q 310.0 644.5 313.0 641.5 L 304.0 635.5 L 303.5 625.0 L 297.5 633.0 L 295.5 629.0 L 292.0 616.5 L 276.0 568.5 L 278.5 568.0 L 287.5 572.0 L 287.0 570.5 L 274.5 545.0 L 269.0 548.5 L 275.0 566.5 L 273.5 566.0 L 267.5 564.0 L 267.0 570.5 L 268.0 575.5 L 269.0 584.5 L 273.0 620.5 L 272.0 620.5 L 246.5 563.0 L 229.0 573.5 L 303.0 702.5 L 0.5 703.0 L 0.5 0.0 Z" /><path desc="l 0 p 0" fill="rgb(0,0,255)" stroke="rgb(0,0,255)" stroke-width="1" opacity="1.0" d="M 361.5 201.0 L 389.5 201.0 L 396.5 201.0 Q 400.3 200.3 401.0 202.5 L 407.5 226.0 L 412.5 225.0 L 422.5 224.0 L 432.0 222.5 L 405.0 201.5 L 440.5 201.0 L 441.0 202.5 L 434.0 222.5 L 437.5 223.0 L 443.0 221.5 Q 441.4 208.9 444.5 201.0 L 627.0 201.5 L 628.5 222.0 L 636.5 223.0 L 637.0 220.5 L 630.0 201.5 L 665.5 201.0 L 663.5 204.0 L 639.0 222.5 L 647.5 224.0 L 657.5 225.0 Q 662.3 223.8 663.5 226.0 L 669.0 207.5 L 671.5 201.0 L 710.0 201.5 L 729.0 234.5 L 717.0 246.5 Q 712.5 248.6 712.0 254.5 L 725.5 273.0 Q 728.8 271.3 727.0 264.5 L 728.0 260.5 L 729.5 249.0 Q 728.6 242.1 731.5 239.0 L 749.0 269.5 Q 747.8 272.3 742.5 271.0 L 727.0 274.5 L 732.5 282.0 L 750.5 272.0 L 842.0 431.5 L 824.5 442.0 L 798.5 384.0 L 798.0 388.5 L 799.0 393.5 L 800.0 402.5 L 804.0 440.5 L 802.5 441.0 L 796.5 438.0 L 796.0 440.5 L 802.5 457.0 L 805.5 455.0 L 808.0 473.5 L 807.0 473.5 L 801.5 457.0 L 796.5 460.0 L 787.0 441.5 L 781.5 432.0 L 770.5 428.0 L 769.5 433.0 L 766.0 426.5 L 767.5 426.0 L 769.5 427.0 L 770.0 423.5 Q 767.5 422.0 769.0 416.5 L 769.0 407.5 L 768.0 402.5 L 769.0 402.5 L 783.5 433.0 L 794.5 437.0 L 795.0 435.5 L 779.5 389.0 L 776.0 378.5 L 773.5 372.0 L 767.5 380.0 L 767.0 372.5 Q 767.8 368.8 765.5 368.0 L 758.0 363.5 Q 761.0 360.5 768.5 362.0 L 774.5 371.0 L 782.0 360.5 L 776.5 360.0 L 773.5 361.0 L 767.5 361.0 L 721.5 310.0 L 719.5 323.0 L 702.5 298.0 L 693.5 302.0 L 681.5 284.0 Q 680.0 286.5 678.5 283.0 L 666.0 285.5 L 670.5 294.0 L 679.5 286.0 L 686.5 305.0 L 693.5 303.0 L 711.0 332.5 L 708.5 331.0 L 693.5 322.0 L 693.0 324.5 L 700.0 345.5 L 698.5 345.0 L 697.0 345.5 L 702.5 355.0 L 703.0 352.5 L 701.0 346.5 L 702.5 347.0 L 715.5 353.0 L 717.5 343.0 L 726.0 357.5 L 724.5 357.0 L 716.5 353.0 Q 714.3 353.8 715.0 357.5 L 714.0 367.5 L 717.5 368.0 L 731.0 365.5 L 727.0 358.5 L 728.5 359.0 L 741.0 364.5 L 732.0 366.5 L 743.0 385.5 L 748.5 395.0 Q 751.5 397.0 751.0 402.5 L 741.5 415.0 L 736.5 414.0 L 736.0 415.5 Q 738.8 416.8 738.5 421.0 L 740.5 416.0 L 746.0 417.5 L 754.5 421.0 L 756.5 410.0 L 765.0 424.5 L 763.5 425.0 L 755.5 421.0 L 754.5 428.0 L 754.0 438.5 L 770.5 457.0 L 771.0 443.5 Q 768.3 441.8 770.0 435.5 L 771.0 435.5 L 787.0 466.5 L 782.0 469.5 L 796.5 486.0 L 800.0 485.5 L 797.0 483.5 L 788.0 465.5 L 796.5 461.0 L 805.5 479.0 L 843.5 434.0 L 862.0 464.5 L 860.5 465.0 L 829.5 452.0 L 830.0 453.5 L 839.0 474.5 L 832.5 477.0 L 810.5 482.0 L 809.5 480.0 L 809.0 482.5 L 812.0 488.5 L 816.0 500.5 L 815.0 500.5 L 810.5 491.0 L 810.0 495.5 Q 812.3 496.8 811.0 501.5 L 805.0 497.5 L 808.0 502.5 L 805.0 507.5 L 811.0 503.5 L 810.0 513.5 L 811.0 513.5 L 815.5 504.0 L 816.0 505.5 L 810.5 522.0 L 809.0 522.5 L 809.5 525.0 L 810.5 523.0 L 831.5 528.0 L 835.5 529.0 L 839.0 530.5 L 829.0 552.5 L 830.5 553.0 L 861.5 540.0 L 861.0 541.5 L 843.5 571.0 L 828.5 553.0 L 827.0 552.5 L 805.5 526.0 L 796.5 544.0 L 788.0 539.5 L 791.0 532.5 L 798.5 520.0 L 800.0 519.5 L 796.5 519.0 L 782.0 535.5 L 787.0 538.5 L 782.0 548.5 L 770.5 570.0 L 770.0 562.5 L 771.0 558.5 L 771.0 548.5 L 765.0 553.5 L 757.0 562.5 L 754.0 568.5 L 754.0 577.5 L 755.5 584.0 L 764.5 580.0 L 764.0 581.5 L 756.5 595.0 L 754.5 584.0 L 746.0 587.5 L 740.5 589.0 L 738.5 584.0 L 736.0 590.5 L 738.5 591.0 L 741.5 590.0 L 748.0 598.5 L 750.0 601.5 L 751.0 605.5 L 732.0 638.5 L 741.0 640.5 L 727.5 647.0 L 728.0 645.5 L 731.0 639.5 L 714.5 637.0 L 714.0 642.5 L 715.0 647.5 Q 714.3 651.3 716.5 652.0 L 725.5 647.0 L 726.0 648.5 L 717.5 662.0 L 715.5 652.0 L 701.5 659.0 L 701.0 656.5 L 703.0 650.5 L 701.0 651.5 L 697.0 659.5 L 698.5 660.0 L 700.0 659.5 L 693.0 682.5 L 694.5 683.0 L 710.5 672.0 L 711.0 673.5 L 693.5 702.0 L 686.5 700.0 L 685.5 703.0 L 676.0 702.5 L 675.5 701.0 L 674.5 703.0 L 673.5 696.0 L 666.0 701.5 Q 663.0 704.5 655.5 703.0 L 631.5 703.0 L 622.5 701.0 L 621.5 703.0 L 620.0 702.5 L 619.5 701.0 L 599.5 698.0 L 599.5 699.0 L 606.0 702.5 L 596.5 703.0 L 585.0 696.5 L 589.5 696.0 Q 590.8 698.3 595.5 697.0 L 595.5 696.0 L 582.5 688.0 L 582.0 694.5 L 582.5 696.0 L 579.5 694.0 L 586.5 703.0 L 572.0 702.5 L 576.0 692.5 L 566.0 686.5 L 566.5 685.0 L 563.0 685.5 L 565.0 686.5 L 550.5 703.0 L 528.5 703.0 L 522.5 703.0 L 519.0 701.5 L 514.0 696.5 L 506.0 686.5 L 508.0 685.5 L 504.5 685.0 L 503.5 688.0 L 495.0 692.5 L 499.0 702.5 L 484.5 703.0 L 491.5 694.0 L 488.5 695.0 L 487.5 689.0 L 475.0 696.5 L 480.5 697.0 L 485.5 696.0 L 485.5 697.0 L 477.5 701.0 Q 474.3 704.8 465.5 703.0 L 465.5 702.0 L 472.0 698.5 L 467.5 698.0 L 456.5 700.0 L 451.0 701.5 L 450.5 703.0 L 448.0 702.5 L 448.5 701.0 L 439.0 702.5 L 431.5 703.0 L 407.5 703.0 L 397.5 696.0 L 396.5 703.0 L 395.5 701.0 L 394.5 703.0 L 385.0 702.5 L 384.5 700.0 L 377.5 702.0 L 360.0 672.5 L 362.5 674.0 L 377.5 683.0 L 378.0 680.5 L 371.0 659.5 L 372.5 660.0 L 374.0 659.5 L 368.5 650.0 L 368.0 652.5 L 370.0 658.5 L 368.5 658.0 L 355.5 652.0 L 353.5 662.0 L 345.0 647.5 L 346.5 648.0 L 354.5 652.0 Q 356.8 651.3 356.0 647.5 L 357.0 637.5 L 353.5 637.0 L 340.0 639.5 L 344.0 646.5 L 342.5 646.0 L 330.0 640.5 L 339.0 638.5 L 328.0 619.5 L 322.5 610.0 Q 319.5 608.0 320.0 602.5 L 329.5 590.0 L 334.5 591.0 L 335.0 589.5 Q 332.3 588.3 332.5 584.0 L 330.5 589.0 L 325.0 587.5 L 316.5 584.0 L 314.5 595.0 L 306.0 580.5 L 307.5 580.0 L 315.5 584.0 L 316.5 578.0 L 317.0 566.5 L 300.5 548.0 L 300.0 561.5 Q 302.8 563.3 301.0 569.5 L 300.0 569.5 L 284.0 538.5 L 289.0 535.5 L 274.5 519.0 L 271.0 519.5 L 274.0 521.5 L 283.0 539.5 L 274.5 544.0 L 265.5 526.0 L 243.5 553.0 L 242.0 553.5 L 227.5 571.0 L 209.0 540.5 L 210.5 540.0 L 241.5 553.0 L 241.0 551.5 L 232.0 530.5 L 238.5 528.0 L 260.5 523.0 L 261.5 525.0 L 262.0 522.5 L 260.0 521.5 L 255.0 504.5 L 256.0 504.5 L 260.5 514.0 L 261.0 509.5 Q 258.8 508.3 260.0 503.5 L 266.0 507.5 L 263.0 502.5 L 266.0 497.5 L 260.0 501.5 L 261.0 491.5 L 260.0 491.5 L 255.5 501.0 L 255.0 499.5 L 262.0 480.5 L 261.0 480.5 L 260.5 482.0 L 239.5 477.0 L 235.5 476.0 L 232.0 474.5 L 242.0 452.5 L 240.5 452.0 L 209.5 465.0 L 210.0 463.5 L 227.5 434.0 L 265.5 479.0 L 274.5 461.0 L 283.0 465.5 L 280.0 472.5 L 272.5 485.0 L 271.0 485.5 L 274.5 486.0 L 289.0 469.5 L 284.0 466.5 L 289.0 456.5 L 300.5 435.0 L 301.0 442.5 L 300.0 446.5 L 300.0 456.5 L 306.0 451.5 L 314.0 442.5 Q 319.1 439.1 317.0 428.5 L 315.5 421.0 L 306.5 425.0 L 307.0 423.5 L 314.5 410.0 L 316.5 421.0 L 325.0 417.5 L 330.5 416.0 L 332.5 421.0 L 335.0 414.5 L 332.5 414.0 L 329.5 415.0 L 323.0 406.5 L 321.0 403.5 L 320.0 399.5 L 339.0 366.5 L 330.0 364.5 L 343.5 358.0 L 343.0 359.5 L 340.0 365.5 L 356.5 368.0 L 357.0 362.5 L 356.0 357.5 Q 356.8 353.8 354.5 353.0 L 345.5 358.0 L 345.0 356.5 L 353.5 343.0 L 355.5 353.0 L 369.5 346.0 L 370.0 348.5 L 368.0 354.5 L 370.0 353.5 L 374.0 345.5 L 372.5 345.0 L 371.0 345.5 L 378.0 322.5 L 376.5 322.0 L 360.5 333.0 L 360.0 331.5 L 377.5 303.0 L 384.5 305.0 L 391.5 286.0 L 400.5 294.0 L 405.0 285.5 L 392.5 283.0 L 388.0 285.5 L 377.5 302.0 L 368.5 298.0 L 351.5 323.0 L 349.5 310.0 L 303.5 361.0 L 289.5 360.0 L 290.0 361.5 L 296.5 371.0 L 302.5 362.0 Q 310.0 360.5 313.0 363.5 L 304.0 369.5 L 303.5 380.0 L 297.5 372.0 L 295.0 377.5 L 292.0 388.5 L 276.0 436.5 L 278.5 437.0 L 289.0 431.5 L 302.5 402.0 L 303.0 403.5 Q 300.5 405.0 302.0 410.5 L 301.0 426.5 L 302.5 427.0 L 304.5 426.0 L 305.0 427.5 L 301.5 433.0 L 300.5 428.0 Q 291.9 429.4 287.0 434.5 L 274.5 460.0 L 269.5 457.0 L 263.5 474.0 L 263.0 469.5 L 265.5 455.0 L 268.5 457.0 L 271.0 451.5 L 275.0 438.5 L 273.5 439.0 L 267.5 441.0 L 267.0 434.5 L 268.0 429.5 L 269.0 420.5 L 273.0 384.5 L 272.0 384.5 L 246.5 442.0 L 229.0 431.5 L 320.5 272.0 L 338.5 282.0 L 344.0 274.5 L 329.0 271.5 Q 323.6 272.4 322.0 269.5 L 339.5 239.0 Q 342.4 242.1 341.5 249.0 L 343.5 264.0 L 344.0 268.5 Q 343.3 272.3 345.5 273.0 L 355.0 259.5 L 358.0 255.5 L 359.0 252.5 L 342.0 234.5 L 361.5 201.0 Z" /><path desc="l 3 p 1" fill="rgb(128,128,128)" stroke="rgb(128,128,128)" stroke-width="1" opacity="1.0" d="M 533.5 204.0 L 538.5 205.0 L 543.5 207.0 L 561.0 214.5 L 554.5 215.0 L 550.5 214.0 L 544.0 213.5 L 527.5 213.0 L 522.5 214.0 L 510.5 215.0 L 510.5 214.0 L 533.5 204.0 Z" /><path desc="l 3 p 2" fill="rgb(128,128,128)" stroke="rgb(128,128,128)" stroke-width="1" opacity="1.0" d="M 535.5 217.0 L 541.0 229.5 L 536.5 230.0 L 534.5 230.0 L 530.0 229.5 L 535.5 217.0 Z" /><path desc="l 0 p 1" fill="rgb(0,0,255)" stroke="rgb(0,0,255)" stroke-width="1" opacity="1.0" d="M 535.5 244.0 L 542.0 248.5 L 540.5 248.0 L 533.5 248.0 L 529.5 249.0 L 530.5 247.0 L 535.5 244.0 Z" /><path desc="l 0 p 2" fill="rgb(0,0,255)" stroke="rgb(0,0,255)" stroke-width="1" opacity="1.0" d="M 493.5 251.0 L 504.0 251.5 L 484.0 262.5 L 487.0 264.5 L 479.5 265.0 L 479.5 264.0 L 483.0 262.5 L 481.5 260.0 L 472.0 253.5 L 486.5 252.0 Q 492.0 253.5 493.5 251.0 Z" /><path desc="l 0 p 3" fill="rgb(0,0,255)" stroke="rgb(0,0,255)" stroke-width="1" opacity="1.0" d="M 567.5 251.0 L 578.0 251.5 L 599.0 253.5 L 588.0 261.5 L 588.5 263.0 L 592.0 264.5 L 584.5 265.0 L 584.5 264.0 L 587.0 262.5 L 573.0 254.5 L 569.0 252.5 L 567.5 251.0 Z" /><path desc="l 3 p 3" fill="rgb(128,128,128)" stroke="rgb(128,128,128)" stroke-width="1" opacity="1.0" d="M 416.5 254.0 L 419.0 254.5 L 416.5 255.0 L 416.5 254.0 Z" /><path desc="l 3 p 4" fill="rgb(128,128,128)" stroke="rgb(128,128,128)" stroke-width="1" opacity="1.0" d="M 652.5 254.0 L 655.0 254.5 L 652.5 255.0 L 652.5 254.0 Z" /><path desc="l 3 p 5" fill="rgb(128,128,128)" stroke="rgb(128,128,128)" stroke-width="1" opacity="1.0" d="M 414.5 256.0 L 416.0 256.5 L 415.5 258.0 L 412.0 257.5 L 414.5 256.0 Z" /><path desc="l 3 p 6" fill="rgb(128,128,128)" stroke="rgb(128,128,128)" stroke-width="1" opacity="1.0" d="M 655.5 256.0 L 659.0 257.5 L 655.5 258.0 L 655.5 256.0 Z" /><path desc="l 0 p 4" fill="rgb(0,0,255)" stroke="rgb(0,0,255)" stroke-width="1" opacity="1.0" d="M 488.5 265.0 L 505.0 265.5 L 498.5 270.0 L 495.5 271.0 Q 489.5 268.7 488.5 265.0 Z" /><path desc="l 0 p 5" fill="rgb(0,0,255)" stroke="rgb(0,0,255)" stroke-width="1" opacity="1.0" d="M 566.5 265.0 L 583.0 265.5 Q 580.1 270.1 573.5 271.0 L 569.0 267.5 L 566.5 265.0 Z" /><path desc="l 3 p 7" fill="rgb(128,128,128)" stroke="rgb(128,128,128)" stroke-width="1" opacity="1.0" d="M 535.5 275.0 L 541.0 281.5 L 534.5 285.0 L 530.0 281.5 L 535.5 275.0 Z" /><path desc="l 3 p 8" fill="rgb(128,128,128)" stroke="rgb(128,128,128)" stroke-width="1" opacity="1.0" d="M 508.5 281.0 L 513.0 284.5 L 507.5 285.0 L 507.0 282.5 L 508.5 281.0 Z" /><path desc="l 3 p 9" fill="rgb(128,128,128)" stroke="rgb(128,128,128)" stroke-width="1" opacity="1.0" d="M 562.5 281.0 L 564.0 284.5 L 558.5 285.0 L 558.5 284.0 L 562.5 281.0 Z" /><path desc="l 3 p 10" fill="rgb(128,128,128)" stroke="rgb(128,128,128)" stroke-width="1" opacity="1.0" d="M 467.5 283.0 L 478.0 284.5 L 472.0 288.5 L 491.0 310.5 L 489.5 310.0 L 488.0 310.5 L 487.5 316.0 L 473.0 307.5 L 474.5 307.0 L 485.5 309.0 L 485.5 308.0 L 462.0 295.5 L 471.0 289.5 L 470.0 286.5 L 467.5 283.0 Z" /><path desc="l 3 p 11" fill="rgb(128,128,128)" stroke="rgb(128,128,128)" stroke-width="1" opacity="1.0" d="M 502.5 285.0 L 506.5 286.0 L 516.5 288.0 L 516.5 287.0 L 514.0 285.5 L 518.5 285.0 L 523.5 286.0 L 535.0 286.5 L 532.0 289.5 Q 529.8 290.8 532.5 292.0 Q 538.5 293.5 540.0 290.5 L 536.5 286.0 L 552.0 285.5 L 556.5 285.0 L 555.5 287.0 L 554.0 287.5 L 558.5 288.0 L 568.5 285.0 L 568.5 286.0 L 565.0 286.5 L 576.0 312.5 L 566.0 318.5 L 566.5 320.0 L 563.0 319.5 L 565.0 318.5 L 544.5 296.0 L 535.5 302.0 L 526.5 296.0 L 506.0 318.5 L 508.0 319.5 L 504.5 320.0 L 503.5 317.0 L 495.0 312.5 L 506.0 286.5 Q 501.6 286.9 502.5 285.0 Z" /><path desc="l 0 p 6" fill="rgb(0,0,255)" stroke="rgb(0,0,255)" stroke-width="1" opacity="1.0" d="M 519.5 289.0 L 530.0 291.5 L 527.5 295.0 L 521.5 291.0 L 519.5 289.0 Z" /><path desc="l 0 p 7" fill="rgb(0,0,255)" stroke="rgb(0,0,255)" stroke-width="1" opacity="1.0" d="M 549.5 289.0 L 552.0 289.5 L 543.5 295.0 L 541.0 291.5 L 549.5 289.0 Z" /><path desc="l 3 p 12" fill="rgb(128,128,128)" stroke="rgb(128,128,128)" stroke-width="1" opacity="1.0" d="M 395.5 292.0 L 397.5 300.0 L 400.5 295.0 L 407.0 302.5 L 397.0 309.5 L 396.5 312.0 L 394.0 313.5 L 394.5 327.0 L 397.0 326.5 L 397.5 313.0 L 410.0 319.5 L 407.0 329.5 L 417.0 330.5 L 411.5 344.0 L 406.5 330.0 L 398.5 349.0 L 396.5 334.0 L 393.5 335.0 L 394.0 333.5 L 393.5 327.0 L 384.0 326.5 L 390.0 314.5 L 388.5 314.0 L 380.5 320.0 L 380.0 317.5 L 384.5 306.0 L 392.0 310.5 L 391.0 312.5 L 393.0 311.5 L 394.5 306.0 L 395.5 310.0 Q 398.5 308.5 397.0 302.5 L 396.0 302.5 L 395.5 304.0 L 395.5 292.0 Z" /><path desc="l 3 p 13" fill="rgb(128,128,128)" stroke="rgb(128,128,128)" stroke-width="1" opacity="1.0" d="M 675.5 292.0 L 676.0 303.5 L 675.0 303.5 L 674.5 302.0 L 674.0 308.5 L 676.0 309.5 L 676.5 306.0 L 679.5 313.0 L 680.0 311.5 Q 677.3 309.8 681.5 308.0 L 686.5 306.0 L 691.0 319.5 L 688.5 318.0 L 681.5 314.0 L 682.0 315.5 L 687.0 326.5 L 677.0 327.5 Q 675.5 333.0 678.0 334.5 L 676.5 335.0 L 674.5 334.0 L 672.5 349.0 L 664.5 330.0 L 659.5 344.0 L 654.0 330.5 L 664.0 329.5 L 661.0 319.5 L 673.5 313.0 L 674.5 327.0 L 677.0 326.5 L 677.0 317.5 Q 678.0 313.0 675.5 312.0 L 674.0 311.5 Q 674.5 307.5 671.5 307.0 L 664.0 302.5 L 670.5 295.0 L 673.5 300.0 L 675.5 292.0 Z" /><path desc="l 3 p 14" fill="rgb(128,128,128)" stroke="rgb(128,128,128)" stroke-width="1" opacity="1.0" d="M 535.5 308.0 L 548.0 316.5 L 546.5 316.0 L 535.5 310.0 L 523.5 317.0 L 524.5 315.0 L 535.5 308.0 Z" /><path desc="l 3 p 15" fill="rgb(128,128,128)" stroke="rgb(128,128,128)" stroke-width="1" opacity="1.0" d="M 535.5 320.0 L 537.0 322.5 L 534.5 323.0 L 534.0 321.5 L 535.5 320.0 Z" /><path desc="l 0 p 8" fill="rgb(0,0,255)" stroke="rgb(0,0,255)" stroke-width="1" opacity="1.0" d="M 350.5 324.0 L 352.0 324.5 L 352.5 332.0 L 353.5 337.0 L 358.5 334.0 L 357.0 336.5 L 354.5 341.0 L 352.5 338.0 L 337.5 347.0 L 330.0 353.5 L 323.0 363.5 L 328.0 364.5 L 327.5 366.0 L 319.5 370.0 L 321.0 367.5 L 323.0 364.5 L 314.0 362.5 L 325.0 355.5 L 334.0 348.5 L 350.5 324.0 Z" /><path desc="l 0 p 9" fill="rgb(0,0,255)" stroke="rgb(0,0,255)" stroke-width="1" opacity="1.0" d="M 499.5 324.0 L 504.0 326.5 L 501.0 328.5 Q 503.3 329.8 500.5 331.0 L 488.5 338.0 Q 487.3 335.8 486.0 338.5 L 488.0 339.5 L 487.5 345.0 L 472.0 328.5 L 479.5 328.0 L 487.0 329.5 L 484.0 336.5 L 485.5 337.0 L 489.0 335.5 Q 486.8 334.3 488.0 329.5 L 494.5 329.0 L 493.5 332.0 L 499.0 329.5 L 496.0 328.5 L 499.5 324.0 Z" /><path desc="l 3 p 16" fill="rgb(128,128,128)" stroke="rgb(128,128,128)" stroke-width="1" opacity="1.0" d="M 509.5 324.0 L 508.5 326.0 L 506.5 327.0 L 507.5 325.0 L 509.5 324.0 Z" /><path desc="l 3 p 17" fill="rgb(128,128,128)" stroke="rgb(128,128,128)" stroke-width="1" opacity="1.0" d="M 561.5 324.0 L 565.0 326.5 L 563.5 326.0 L 561.5 324.0 Z" /><path desc="l 0 p 10" fill="rgb(0,0,255)" stroke="rgb(0,0,255)" stroke-width="1" opacity="1.0" d="M 570.5 324.0 L 572.0 324.5 L 575.0 328.5 L 572.0 329.5 L 577.5 332.0 L 576.5 329.0 L 582.0 328.5 L 582.5 327.0 L 583.0 328.5 Q 580.8 329.8 582.0 334.5 L 586.5 337.0 L 586.0 335.5 L 584.0 329.5 L 598.5 328.0 L 588.0 339.5 L 582.5 346.0 L 582.0 341.5 Q 582.8 336.8 579.5 336.0 L 569.0 329.5 L 569.5 328.0 L 567.0 326.5 L 570.5 324.0 Z" /><path desc="l 0 p 11" fill="rgb(0,0,255)" stroke="rgb(0,0,255)" stroke-width="1" opacity="1.0" d="M 719.5 324.0 L 721.0 324.5 L 733.5 343.0 L 741.5 353.0 L 757.0 362.5 L 748.0 364.5 L 752.0 369.5 L 750.5 369.0 L 743.0 365.5 L 743.5 364.0 L 748.0 363.5 L 736.5 349.0 L 718.5 338.0 L 716.5 341.0 L 712.0 334.5 L 713.5 335.0 L 717.5 337.0 L 719.5 324.0 Z" /><path desc="l 3 p 18" fill="rgb(128,128,128)" stroke="rgb(128,128,128)" stroke-width="1" opacity="1.0" d="M 378.5 326.0 L 383.0 326.5 L 380.5 332.0 L 379.0 331.5 L 378.5 326.0 Z" /><path desc="l 3 p 19" fill="rgb(128,128,128)" stroke="rgb(128,128,128)" stroke-width="1" opacity="1.0" d="M 688.5 326.0 L 693.0 326.5 L 691.5 332.0 L 689.0 330.5 L 688.5 326.0 Z" /><path desc="l 3 p 20" fill="rgb(128,128,128)" stroke="rgb(128,128,128)" stroke-width="1" opacity="1.0" d="M 387.5 328.0 L 391.0 328.5 L 387.5 329.0 L 387.5 328.0 Z" /><path desc="l 3 p 21" fill="rgb(128,128,128)" stroke="rgb(128,128,128)" stroke-width="1" opacity="1.0" d="M 506.5 328.0 L 509.0 329.5 L 507.5 330.0 L 506.5 328.0 Z" /><path desc="l 3 p 22" fill="rgb(128,128,128)" stroke="rgb(128,128,128)" stroke-width="1" opacity="1.0" d="M 563.5 328.0 L 565.0 328.5 L 562.5 330.0 L 563.5 328.0 Z" /><path desc="l 3 p 23" fill="rgb(128,128,128)" stroke="rgb(128,128,128)" stroke-width="1" opacity="1.0" d="M 680.5 328.0 L 684.0 328.5 L 680.5 329.0 L 680.5 328.0 Z" /><path desc="l 3 p 24" fill="rgb(128,128,128)" stroke="rgb(128,128,128)" stroke-width="1" opacity="1.0" d="M 379.5 334.0 L 382.5 340.0 L 392.5 336.0 L 393.0 354.5 L 392.0 357.5 L 392.0 363.5 L 393.0 363.5 L 397.5 351.0 L 398.0 363.5 L 399.0 371.5 L 398.0 371.5 Q 398.5 367.5 395.5 367.0 L 392.5 366.0 L 391.5 369.0 L 382.5 341.0 L 375.5 344.0 L 375.0 342.5 L 379.5 334.0 Z" /><path desc="l 3 p 25" fill="rgb(128,128,128)" stroke="rgb(128,128,128)" stroke-width="1" opacity="1.0" d="M 691.5 334.0 L 696.0 343.5 L 694.5 343.0 L 688.5 341.0 L 679.5 369.0 L 678.5 366.0 L 673.0 369.5 L 672.5 372.0 L 672.0 369.5 Q 674.3 368.3 673.0 363.5 L 673.5 351.0 L 678.5 364.0 L 679.0 355.5 L 678.0 350.5 L 678.0 336.5 L 679.5 336.0 L 688.5 340.0 L 691.5 334.0 Z" /><path desc="l 3 p 26" fill="rgb(128,128,128)" stroke="rgb(128,128,128)" stroke-width="1" opacity="1.0" d="M 299.5 336.0 L 298.0 338.5 L 287.5 353.0 L 274.5 380.0 L 274.0 372.5 L 275.0 367.5 L 276.0 358.5 Q 275.3 353.8 277.5 352.0 L 299.5 336.0 Z" /><path desc="l 3 p 27" fill="rgb(128,128,128)" stroke="rgb(128,128,128)" stroke-width="1" opacity="1.0" d="M 771.5 336.0 L 794.0 352.5 L 797.0 379.5 L 796.0 379.5 L 789.0 362.5 L 781.0 350.5 L 771.5 336.0 Z" /><path desc="l 0 p 12" fill="rgb(0,0,255)" stroke="rgb(0,0,255)" stroke-width="1" opacity="1.0" d="M 533.5 339.0 Q 539.7 338.3 542.0 341.5 L 534.5 345.0 L 529.0 341.5 L 533.5 339.0 Z" /><path desc="l 0 p 13" fill="rgb(0,0,255)" stroke="rgb(0,0,255)" stroke-width="1" opacity="1.0" d="M 317.5 370.0 L 318.0 371.5 L 312.5 381.0 L 312.0 373.5 L 317.5 370.0 Z" /><path desc="l 0 p 14" fill="rgb(0,0,255)" stroke="rgb(0,0,255)" stroke-width="1" opacity="1.0" d="M 753.5 370.0 L 759.0 373.5 L 758.5 381.0 L 755.0 373.5 Q 752.0 372.5 753.5 370.0 Z" /><path desc="l 0 p 15" fill="rgb(0,0,255)" stroke="rgb(0,0,255)" stroke-width="1" opacity="1.0" d="M 534.5 372.0 L 534.0 373.5 L 527.5 387.0 L 523.0 383.5 L 527.5 378.0 L 534.5 372.0 Z" /><path desc="l 0 p 16" fill="rgb(0,0,255)" stroke="rgb(0,0,255)" stroke-width="1" opacity="1.0" d="M 536.5 372.0 L 548.0 382.5 L 544.5 387.0 L 543.0 386.5 L 536.5 372.0 Z" /><path desc="l 0 p 17" fill="rgb(0,0,255)" stroke="rgb(0,0,255)" stroke-width="1" opacity="1.0" d="M 304.5 381.0 L 308.5 387.0 L 310.0 386.5 L 311.5 383.0 Q 314.8 384.8 313.0 391.5 L 311.0 390.5 L 309.5 388.0 L 303.5 400.0 L 303.0 384.5 L 304.5 381.0 Z" /><path desc="l 0 p 18" fill="rgb(0,0,255)" stroke="rgb(0,0,255)" stroke-width="1" opacity="1.0" d="M 766.5 381.0 L 768.0 387.5 L 768.0 399.5 L 767.0 399.5 L 761.5 388.0 L 758.5 392.0 L 758.0 384.5 L 760.0 383.5 L 761.5 387.0 L 763.0 386.5 L 766.5 381.0 Z" /><path desc="l 3 p 28" fill="rgb(128,128,128)" stroke="rgb(128,128,128)" stroke-width="1" opacity="1.0" d="M 346.5 386.0 L 347.0 393.5 L 340.5 397.0 L 339.0 389.5 L 346.5 386.0 Z" /><path desc="l 0 p 19" fill="rgb(0,0,255)" stroke="rgb(0,0,255)" stroke-width="1" opacity="1.0" d="M 535.5 386.0 L 541.5 390.0 Q 543.3 386.3 545.0 389.5 L 560.5 420.0 L 576.5 423.0 L 578.5 424.0 L 581.5 425.0 L 585.0 428.5 L 594.0 439.5 L 588.0 440.5 L 578.5 441.0 Q 572.3 439.3 570.5 442.0 L 569.5 439.0 L 568.5 441.0 L 535.5 432.0 L 502.5 441.0 L 501.5 439.0 L 500.5 442.0 Q 498.8 439.3 492.5 441.0 L 483.0 440.5 L 477.0 439.5 L 490.5 424.0 L 503.0 421.5 Q 509.0 421.5 512.0 418.5 L 527.5 388.0 Q 529.0 391.5 530.5 389.0 L 535.5 386.0 Z" /><path desc="l 3 p 29" fill="rgb(128,128,128)" stroke="rgb(128,128,128)" stroke-width="1" opacity="1.0" d="M 724.5 386.0 L 732.0 389.5 L 730.5 397.0 L 724.0 393.5 L 724.5 386.0 Z" /><path desc="l 0 p 20" fill="rgb(0,0,255)" stroke="rgb(0,0,255)" stroke-width="1" opacity="1.0" d="M 313.5 393.0 L 318.0 399.5 L 319.0 402.5 L 315.5 408.0 Q 313.3 406.3 314.0 401.5 L 313.5 393.0 Z" /><path desc="l 0 p 21" fill="rgb(0,0,255)" stroke="rgb(0,0,255)" stroke-width="1" opacity="1.0" d="M 757.5 393.0 L 758.0 394.5 Q 755.5 396.0 757.0 401.5 Q 757.8 406.3 755.5 408.0 L 752.0 400.5 L 757.5 393.0 Z" /><path desc="l 3 p 30" fill="rgb(128,128,128)" stroke="rgb(128,128,128)" stroke-width="1" opacity="1.0" d="M 379.5 399.0 L 378.5 401.0 L 369.0 406.5 L 368.5 423.0 L 368.0 411.5 Q 369.3 406.8 367.0 405.5 L 379.5 399.0 Z" /><path desc="l 3 p 31" fill="rgb(128,128,128)" stroke="rgb(128,128,128)" stroke-width="1" opacity="1.0" d="M 691.5 399.0 L 704.0 405.5 L 703.0 410.5 L 702.5 423.0 L 701.5 406.0 L 694.0 401.5 L 691.5 399.0 Z" /><path desc="l 3 p 32" fill="rgb(128,128,128)" stroke="rgb(128,128,128)" stroke-width="1" opacity="1.0" d="M 534.5 412.0 L 542.0 415.5 L 540.5 416.0 L 537.5 415.0 L 531.5 415.0 L 528.5 416.0 L 528.5 415.0 L 534.5 412.0 Z" /><path desc="l 3 p 33" fill="rgb(128,128,128)" stroke="rgb(128,128,128)" stroke-width="1" opacity="1.0" d="M 325.5 429.0 L 325.0 430.5 L 318.5 441.0 L 318.0 437.5 L 325.5 429.0 Z" /><path desc="l 3 p 34" fill="rgb(128,128,128)" stroke="rgb(128,128,128)" stroke-width="1" opacity="1.0" d="M 745.5 429.0 L 751.5 436.0 Q 753.8 436.8 753.0 440.5 L 751.0 439.5 L 745.5 429.0 Z" /><path desc="l 0 p 22" fill="rgb(0,0,255)" stroke="rgb(0,0,255)" stroke-width="1" opacity="1.0" d="M 534.5 439.0 L 547.0 444.5 L 542.5 445.0 L 538.5 444.0 L 529.5 444.0 L 524.5 445.0 L 524.5 444.0 L 534.5 439.0 Z" /><path desc="l 0 p 23" fill="rgb(0,0,255)" stroke="rgb(0,0,255)" stroke-width="1" opacity="1.0" d="M 264.5 442.0 L 267.0 442.5 L 264.5 454.0 L 254.0 447.5 L 264.5 442.0 Z" /><path desc="l 0 p 24" fill="rgb(0,0,255)" stroke="rgb(0,0,255)" stroke-width="1" opacity="1.0" d="M 804.5 442.0 L 817.0 447.5 L 806.5 454.0 L 804.5 442.0 Z" /><path desc="l 0 p 25" fill="rgb(0,0,255)" stroke="rgb(0,0,255)" stroke-width="1" opacity="1.0" d="M 246.5 443.0 L 253.0 446.5 L 243.5 451.0 L 243.0 449.5 L 246.5 443.0 Z" /><path desc="l 0 p 26" fill="rgb(0,0,255)" stroke="rgb(0,0,255)" stroke-width="1" opacity="1.0" d="M 823.5 443.0 L 826.0 444.5 L 828.0 450.5 L 826.5 451.0 L 818.0 446.5 L 823.5 443.0 Z" /><path desc="l 0 p 27" fill="rgb(0,0,255)" stroke="rgb(0,0,255)" stroke-width="1" opacity="1.0" d="M 509.5 445.0 L 522.0 445.5 L 508.0 452.5 L 512.5 453.0 L 515.5 452.0 L 521.5 452.0 L 526.5 451.0 L 539.5 450.0 L 544.5 451.0 L 562.5 453.0 L 562.5 452.0 L 549.0 445.5 L 561.5 445.0 L 569.0 446.5 L 579.0 462.5 L 576.5 461.0 L 566.5 455.0 L 566.0 456.5 L 577.0 470.5 L 582.5 480.0 L 591.5 500.0 L 592.0 486.5 L 591.0 484.5 L 592.0 484.5 L 601.0 502.5 L 591.5 521.0 L 591.0 519.5 L 592.0 515.5 L 592.0 505.5 L 591.0 505.5 Q 586.0 521.5 577.0 533.5 L 566.0 549.5 L 567.5 549.0 L 578.5 542.0 L 578.0 543.5 L 568.5 559.0 L 549.5 560.0 L 549.5 559.0 L 563.0 552.5 L 558.5 552.0 L 555.5 553.0 L 549.5 553.0 L 544.5 554.0 L 531.5 555.0 L 526.5 554.0 L 508.5 552.0 L 508.5 553.0 L 522.0 559.5 L 509.5 560.0 L 502.0 558.5 L 492.0 542.5 L 494.5 544.0 L 504.5 550.0 L 505.0 548.5 L 494.0 534.5 L 488.5 525.0 L 479.5 505.0 L 479.0 518.5 L 480.0 520.5 L 479.0 520.5 L 470.0 502.5 L 479.5 484.0 L 480.0 485.5 L 479.0 489.5 L 479.0 499.5 L 480.0 499.5 Q 485.0 483.5 494.0 471.5 L 505.0 455.5 L 503.5 456.0 L 492.5 463.0 L 493.0 461.5 L 502.5 446.0 Q 508.0 447.5 509.5 445.0 Z" /><path desc="l 3 p 35" fill="rgb(128,128,128)" stroke="rgb(128,128,128)" stroke-width="1" opacity="1.0" d="M 464.5 452.0 L 459.0 458.5 L 457.5 464.0 L 457.0 457.5 L 464.5 452.0 Z" /><path desc="l 3 p 36" fill="rgb(128,128,128)" stroke="rgb(128,128,128)" stroke-width="1" opacity="1.0" d="M 606.5 452.0 L 614.0 457.5 L 613.5 464.0 Q 613.3 458.7 610.0 456.5 L 606.5 452.0 Z" /><path desc="l 0 p 28" fill="rgb(0,0,255)" stroke="rgb(0,0,255)" stroke-width="1" opacity="1.0" d="M 490.5 464.0 L 489.0 466.5 L 480.5 482.0 L 480.0 471.5 L 490.5 464.0 Z" /><path desc="l 0 p 29" fill="rgb(0,0,255)" stroke="rgb(0,0,255)" stroke-width="1" opacity="1.0" d="M 580.5 464.0 L 591.0 471.5 L 590.5 482.0 L 580.5 464.0 Z" /><path desc="l 3 p 37" fill="rgb(128,128,128)" stroke="rgb(128,128,128)" stroke-width="1" opacity="1.0" d="M 533.5 465.0 L 548.5 468.0 Q 554.0 467.5 556.0 470.5 L 562.0 476.5 Q 568.7 481.3 570.5 491.0 L 574.0 503.5 L 571.0 513.5 L 569.0 519.5 L 565.0 524.5 L 554.5 536.0 L 533.5 540.0 L 522.5 537.0 Q 517.0 537.5 515.0 534.5 L 509.0 528.5 Q 502.3 523.7 500.5 514.0 L 497.0 501.5 L 500.0 491.5 L 502.0 485.5 L 506.0 480.5 L 516.5 469.0 L 533.5 465.0 Z" /><path desc="l 0 p 30" fill="rgb(0,0,255)" stroke="rgb(0,0,255)" stroke-width="1" opacity="1.0" d="M 311.5 468.0 L 314.0 469.5 L 313.5 471.0 L 300.5 477.0 L 300.0 475.5 L 311.5 468.0 Z" /><path desc="l 0 p 31" fill="rgb(0,0,255)" stroke="rgb(0,0,255)" stroke-width="1" opacity="1.0" d="M 758.5 468.0 L 771.0 475.5 L 770.5 477.0 L 757.0 470.5 L 758.5 468.0 Z" /><path desc="l 0 p 32" fill="rgb(0,0,255)" stroke="rgb(0,0,255)" stroke-width="1" opacity="1.0" d="M 206.5 469.0 L 231.0 475.5 L 219.0 502.5 L 231.0 529.5 L 206.5 536.0 L 187.0 502.5 L 206.5 469.0 Z" /><path desc="l 0 p 33" fill="rgb(0,0,255)" stroke="rgb(0,0,255)" stroke-width="1" opacity="1.0" d="M 862.5 469.0 L 865.0 469.5 L 884.0 502.5 L 864.5 536.0 L 840.0 529.5 L 852.0 502.5 L 840.0 475.5 L 862.5 469.0 Z" /><path desc="l 3 p 38" fill="rgb(128,128,128)" stroke="rgb(128,128,128)" stroke-width="1" opacity="1.0" d="M 334.5 474.0 L 336.0 474.5 L 327.5 486.0 L 322.0 477.5 L 334.5 474.0 Z" /><path desc="l 3 p 39" fill="rgb(128,128,128)" stroke="rgb(128,128,128)" stroke-width="1" opacity="1.0" d="M 735.5 474.0 L 749.0 477.5 L 743.5 486.0 L 738.0 479.5 L 735.5 474.0 Z" /><path desc="l 0 p 34" fill="rgb(0,0,255)" stroke="rgb(0,0,255)" stroke-width="1" opacity="1.0" d="M 535.5 480.0 L 543.5 482.0 L 549.0 484.5 Q 557.5 490.5 558.0 504.5 L 555.5 511.0 L 552.5 516.0 L 547.5 522.0 L 535.5 525.0 L 527.5 523.0 L 522.0 520.5 Q 513.5 514.5 513.0 500.5 L 515.5 494.0 L 518.0 489.5 L 523.5 483.0 L 535.5 480.0 Z" /><path desc="l 3 p 40" fill="rgb(128,128,128)" stroke="rgb(128,128,128)" stroke-width="1" opacity="1.0" d="M 272.5 487.0 L 273.0 488.5 L 269.0 491.5 L 272.5 487.0 Z" /><path desc="l 3 p 41" fill="rgb(128,128,128)" stroke="rgb(128,128,128)" stroke-width="1" opacity="1.0" d="M 798.5 487.0 L 802.0 491.5 L 798.0 488.5 L 798.5 487.0 Z" /><path desc="l 3 p 42" fill="rgb(128,128,128)" stroke="rgb(128,128,128)" stroke-width="1" opacity="1.0" d="M 269.5 513.0 L 273.0 517.5 L 271.0 516.5 L 269.5 513.0 Z" /><path desc="l 3 p 43" fill="rgb(128,128,128)" stroke="rgb(128,128,128)" stroke-width="1" opacity="1.0" d="M 801.5 513.0 L 800.0 515.5 L 798.5 518.0 L 798.0 516.5 L 801.5 513.0 Z" /><path desc="l 3 p 44" fill="rgb(128,128,128)" stroke="rgb(128,128,128)" stroke-width="1" opacity="1.0" d="M 327.5 519.0 L 336.0 530.5 L 334.5 531.0 L 322.0 527.5 L 327.5 519.0 Z" /><path desc="l 3 p 45" fill="rgb(128,128,128)" stroke="rgb(128,128,128)" stroke-width="1" opacity="1.0" d="M 743.5 519.0 L 749.0 527.5 L 735.5 531.0 L 736.0 529.5 L 743.5 519.0 Z" /><path desc="l 0 p 35" fill="rgb(0,0,255)" stroke="rgb(0,0,255)" stroke-width="1" opacity="1.0" d="M 480.5 523.0 L 491.0 540.5 L 489.5 540.0 L 480.0 533.5 L 480.5 523.0 Z" /><path desc="l 0 p 36" fill="rgb(0,0,255)" stroke="rgb(0,0,255)" stroke-width="1" opacity="1.0" d="M 590.5 523.0 L 591.0 533.5 L 580.5 541.0 L 582.0 538.5 L 590.5 523.0 Z" /><path desc="l 0 p 37" fill="rgb(0,0,255)" stroke="rgb(0,0,255)" stroke-width="1" opacity="1.0" d="M 300.5 528.0 L 314.0 534.5 L 312.5 537.0 L 300.0 529.5 L 300.5 528.0 Z" /><path desc="l 0 p 38" fill="rgb(0,0,255)" stroke="rgb(0,0,255)" stroke-width="1" opacity="1.0" d="M 768.5 528.0 L 771.0 528.5 L 770.5 530.0 L 758.5 537.0 L 757.0 534.5 L 768.5 528.0 Z" /><path desc="l 0 p 39" fill="rgb(0,0,255)" stroke="rgb(0,0,255)" stroke-width="1" opacity="1.0" d="M 263.5 531.0 L 269.5 548.0 L 274.5 545.0 L 284.0 563.5 L 289.5 573.0 L 300.5 577.0 L 301.5 572.0 L 305.0 578.5 L 303.5 579.0 L 301.5 578.0 L 301.0 581.5 Q 303.5 583.0 302.0 588.5 L 302.0 597.5 L 303.0 602.5 L 302.0 602.5 L 287.5 572.0 L 276.5 568.0 L 276.0 569.5 L 291.5 616.0 L 295.0 627.5 L 297.5 633.0 L 303.5 625.0 L 304.0 632.5 Q 303.3 636.3 305.5 637.0 L 313.0 641.5 Q 310.0 644.5 302.5 643.0 L 296.5 634.0 L 289.0 644.5 L 294.5 645.0 L 297.5 644.0 L 303.5 644.0 L 349.5 695.0 L 351.5 682.0 L 366.0 702.5 L 356.5 703.0 L 349.0 696.5 L 348.5 703.0 Q 343.9 703.6 342.5 701.0 L 333.5 694.0 L 303.5 672.0 L 303.0 673.5 L 324.0 702.5 L 303.5 703.0 L 229.0 573.5 L 246.5 563.0 L 272.5 621.0 L 273.0 616.5 L 272.0 611.5 L 271.0 602.5 L 267.0 564.5 L 268.5 564.0 L 274.5 567.0 L 275.0 564.5 L 268.5 548.0 L 265.5 550.0 L 264.0 540.5 L 263.5 531.0 Z" /><path desc="l 0 p 40" fill="rgb(0,0,255)" stroke="rgb(0,0,255)" stroke-width="1" opacity="1.0" d="M 807.5 531.0 L 808.0 535.5 L 805.5 550.0 L 802.5 548.0 L 800.0 553.5 L 796.0 566.5 L 797.5 566.0 L 803.5 564.0 L 804.0 570.5 L 803.0 575.5 L 802.0 584.5 L 798.0 620.5 L 799.0 620.5 L 824.5 563.0 L 842.0 573.5 L 767.5 703.0 L 747.0 702.5 L 768.0 672.5 L 766.5 673.0 L 737.5 694.0 L 729.0 700.5 Q 727.6 703.6 722.5 703.0 L 721.5 696.0 L 716.5 701.0 L 712.5 703.0 L 705.5 703.0 L 708.0 699.5 L 719.5 682.0 L 721.5 695.0 L 767.5 644.0 L 781.5 645.0 L 781.0 643.5 L 774.5 634.0 L 768.5 643.0 Q 761.0 644.5 758.0 641.5 L 767.0 635.5 L 767.5 625.0 L 773.5 633.0 L 775.5 629.0 L 779.0 616.5 L 795.0 568.5 L 792.5 568.0 L 782.0 573.5 L 768.5 603.0 L 768.0 601.5 Q 770.5 600.0 769.0 594.5 L 770.0 578.5 L 768.5 578.0 L 766.5 579.0 L 766.0 577.5 L 769.5 572.0 L 770.5 577.0 Q 779.1 575.6 784.0 570.5 L 796.5 545.0 L 801.5 548.0 L 807.5 531.0 Z" /><path desc="l 3 p 46" fill="rgb(128,128,128)" stroke="rgb(128,128,128)" stroke-width="1" opacity="1.0" d="M 457.5 541.0 Q 458.5 549.5 465.0 552.5 L 462.5 551.0 L 457.0 547.5 L 457.5 541.0 Z" /><path desc="l 3 p 47" fill="rgb(128,128,128)" stroke="rgb(128,128,128)" stroke-width="1" opacity="1.0" d="M 613.5 541.0 L 614.0 547.5 L 606.5 553.0 L 612.0 546.5 L 613.5 541.0 Z" /><path desc="l 0 p 41" fill="rgb(0,0,255)" stroke="rgb(0,0,255)" stroke-width="1" opacity="1.0" d="M 264.5 551.0 Q 267.2 554.8 266.0 562.5 L 264.5 563.0 L 254.0 557.5 L 264.5 551.0 Z" /><path desc="l 0 p 42" fill="rgb(0,0,255)" stroke="rgb(0,0,255)" stroke-width="1" opacity="1.0" d="M 806.5 551.0 L 817.0 557.5 L 805.5 563.0 L 805.0 554.5 L 806.5 551.0 Z" /><path desc="l 0 p 43" fill="rgb(0,0,255)" stroke="rgb(0,0,255)" stroke-width="1" opacity="1.0" d="M 243.5 554.0 L 253.0 558.5 L 246.5 562.0 Q 243.0 559.0 243.5 554.0 Z" /><path desc="l 0 p 44" fill="rgb(0,0,255)" stroke="rgb(0,0,255)" stroke-width="1" opacity="1.0" d="M 826.5 554.0 L 828.0 554.5 L 824.5 562.0 L 818.0 558.5 L 826.5 554.0 Z" /><path desc="l 0 p 45" fill="rgb(0,0,255)" stroke="rgb(0,0,255)" stroke-width="1" opacity="1.0" d="M 524.5 560.0 L 540.5 561.0 Q 541.8 558.8 546.5 560.0 L 546.5 561.0 L 534.5 566.0 L 527.5 562.0 Q 523.8 561.8 524.5 560.0 Z" /><path desc="l 0 p 46" fill="rgb(0,0,255)" stroke="rgb(0,0,255)" stroke-width="1" opacity="1.0" d="M 500.5 563.0 L 501.5 566.0 L 502.5 564.0 L 535.5 573.0 L 568.5 564.0 L 569.5 566.0 L 570.5 563.0 Q 572.3 565.8 578.5 564.0 L 588.0 564.5 L 594.0 565.5 L 580.5 581.0 L 568.0 583.5 Q 562.0 583.5 559.0 586.5 L 543.5 617.0 Q 542.0 613.5 540.5 616.0 L 535.5 619.0 L 529.5 615.0 Q 527.8 618.8 526.0 615.5 L 510.5 585.0 L 494.5 582.0 L 492.5 581.0 L 489.5 580.0 L 486.0 576.5 L 477.0 565.5 L 483.0 564.5 L 492.5 564.0 Q 498.8 565.8 500.5 563.0 Z" /><path desc="l 3 p 48" fill="rgb(128,128,128)" stroke="rgb(128,128,128)" stroke-width="1" opacity="1.0" d="M 318.5 564.0 L 326.0 575.5 L 321.0 571.5 L 319.0 568.5 L 318.5 564.0 Z" /><path desc="l 3 p 49" fill="rgb(128,128,128)" stroke="rgb(128,128,128)" stroke-width="1" opacity="1.0" d="M 752.5 564.0 L 753.0 567.5 L 745.5 576.0 L 746.0 574.5 L 752.5 564.0 Z" /><path desc="l 3 p 50" fill="rgb(128,128,128)" stroke="rgb(128,128,128)" stroke-width="1" opacity="1.0" d="M 368.5 583.0 L 369.5 599.0 L 380.0 605.5 L 378.5 605.0 L 367.0 599.5 L 368.0 594.5 L 368.5 583.0 Z" /><path desc="l 3 p 51" fill="rgb(128,128,128)" stroke="rgb(128,128,128)" stroke-width="1" opacity="1.0" d="M 702.5 583.0 L 703.0 593.5 Q 701.8 598.3 704.0 599.5 L 691.5 606.0 L 692.5 604.0 L 702.0 598.5 L 702.5 583.0 Z" /><path desc="l 3 p 52" fill="rgb(128,128,128)" stroke="rgb(128,128,128)" stroke-width="1" opacity="1.0" d="M 528.5 589.0 L 539.5 590.0 L 541.5 589.0 L 540.5 591.0 L 534.5 593.0 L 530.0 590.5 L 528.5 589.0 Z" /><path desc="l 0 p 47" fill="rgb(0,0,255)" stroke="rgb(0,0,255)" stroke-width="1" opacity="1.0" d="M 315.5 597.0 L 319.0 604.5 L 313.5 612.0 L 313.0 610.5 Q 315.5 609.0 314.0 603.5 Q 313.3 598.8 315.5 597.0 Z" /><path desc="l 0 p 48" fill="rgb(0,0,255)" stroke="rgb(0,0,255)" stroke-width="1" opacity="1.0" d="M 755.5 597.0 Q 757.8 598.8 757.0 603.5 L 758.0 611.5 L 757.0 611.5 L 753.0 605.5 L 752.0 602.5 L 755.5 597.0 Z" /><path desc="l 0 p 49" fill="rgb(0,0,255)" stroke="rgb(0,0,255)" stroke-width="1" opacity="1.0" d="M 303.5 605.0 L 309.5 617.0 L 312.5 613.0 L 313.0 620.5 L 311.0 621.5 L 309.5 618.0 L 308.0 618.5 L 304.5 624.0 L 303.0 616.5 L 303.5 605.0 Z" /><path desc="l 0 p 50" fill="rgb(0,0,255)" stroke="rgb(0,0,255)" stroke-width="1" opacity="1.0" d="M 767.5 605.0 L 768.0 620.5 L 766.5 624.0 L 762.5 618.0 L 761.0 618.5 L 759.5 622.0 Q 756.3 620.3 758.0 613.5 L 760.0 614.5 L 761.5 617.0 L 767.5 605.0 Z" /><path desc="l 3 p 53" fill="rgb(128,128,128)" stroke="rgb(128,128,128)" stroke-width="1" opacity="1.0" d="M 340.5 608.0 L 347.0 611.5 L 346.5 619.0 L 339.0 615.5 L 340.5 608.0 Z" /><path desc="l 3 p 54" fill="rgb(128,128,128)" stroke="rgb(128,128,128)" stroke-width="1" opacity="1.0" d="M 729.5 608.0 L 731.0 608.5 L 732.0 615.5 L 724.5 619.0 L 724.0 611.5 L 729.5 608.0 Z" /><path desc="l 0 p 51" fill="rgb(0,0,255)" stroke="rgb(0,0,255)" stroke-width="1" opacity="1.0" d="M 526.5 618.0 L 528.0 618.5 L 535.0 632.5 L 528.5 627.0 L 523.0 622.5 L 526.5 618.0 Z" /><path desc="l 0 p 52" fill="rgb(0,0,255)" stroke="rgb(0,0,255)" stroke-width="1" opacity="1.0" d="M 543.5 618.0 L 548.0 621.5 L 543.5 627.0 L 536.5 633.0 L 537.0 631.5 L 543.5 618.0 Z" /><path desc="l 0 p 53" fill="rgb(0,0,255)" stroke="rgb(0,0,255)" stroke-width="1" opacity="1.0" d="M 312.5 624.0 L 318.0 634.5 L 316.5 634.0 L 312.0 631.5 L 312.5 624.0 Z" /><path desc="l 0 p 54" fill="rgb(0,0,255)" stroke="rgb(0,0,255)" stroke-width="1" opacity="1.0" d="M 758.5 624.0 L 759.0 631.5 L 753.5 635.0 L 753.0 633.5 L 758.5 624.0 Z" /><path desc="l 3 p 55" fill="rgb(128,128,128)" stroke="rgb(128,128,128)" stroke-width="1" opacity="1.0" d="M 274.5 625.0 L 282.0 642.5 Q 289.3 657.2 300.0 668.5 L 297.5 667.0 L 277.0 652.5 L 275.0 637.5 L 274.5 625.0 Z" /><path desc="l 3 p 56" fill="rgb(128,128,128)" stroke="rgb(128,128,128)" stroke-width="1" opacity="1.0" d="M 796.5 625.0 L 797.0 632.5 L 796.0 637.5 L 795.0 646.5 Q 795.8 651.3 793.5 653.0 L 771.5 669.0 L 773.0 666.5 L 783.5 652.0 L 796.5 625.0 Z" /><path desc="l 3 p 57" fill="rgb(128,128,128)" stroke="rgb(128,128,128)" stroke-width="1" opacity="1.0" d="M 398.5 633.0 L 399.0 635.5 Q 396.8 636.8 398.0 641.5 L 397.5 654.0 L 392.5 641.0 L 392.0 650.5 L 393.0 655.5 L 393.0 668.5 L 391.5 669.0 L 382.5 665.0 L 379.5 671.0 L 375.0 661.5 L 376.5 662.0 L 382.5 664.0 L 391.5 636.0 L 392.5 639.0 L 398.0 635.5 L 398.5 633.0 Z" /><path desc="l 3 p 58" fill="rgb(128,128,128)" stroke="rgb(128,128,128)" stroke-width="1" opacity="1.0" d="M 672.5 633.0 L 675.5 638.0 L 678.5 639.0 L 679.5 636.0 L 688.5 664.0 L 695.5 661.0 L 696.0 662.5 L 691.5 671.0 L 688.5 665.0 L 678.5 669.0 L 678.0 650.5 L 679.0 647.5 L 679.0 641.5 L 678.0 641.5 L 673.5 654.0 L 673.0 642.5 L 672.5 633.0 Z" /><path desc="l 0 p 55" fill="rgb(0,0,255)" stroke="rgb(0,0,255)" stroke-width="1" opacity="1.0" d="M 319.5 635.0 L 328.0 639.5 L 327.5 641.0 L 323.0 641.5 L 334.5 656.0 L 352.5 667.0 L 354.5 664.0 L 359.0 670.5 L 357.5 670.0 L 353.5 668.0 L 351.5 681.0 L 350.0 680.5 L 337.5 662.0 L 329.5 652.0 L 314.0 642.5 L 323.0 640.5 L 319.5 635.0 Z" /><path desc="l 0 p 56" fill="rgb(0,0,255)" stroke="rgb(0,0,255)" stroke-width="1" opacity="1.0" d="M 751.5 635.0 L 750.0 637.5 L 748.0 640.5 L 757.0 642.5 L 746.0 649.5 L 737.0 656.5 L 720.5 681.0 L 719.0 680.5 L 718.5 673.0 L 717.5 668.0 L 712.5 671.0 L 714.0 668.5 L 716.5 664.0 L 718.5 667.0 L 733.5 658.0 L 741.0 651.5 L 748.0 641.5 L 743.0 640.5 L 743.5 639.0 L 751.5 635.0 Z" /><path desc="l 3 p 59" fill="rgb(128,128,128)" stroke="rgb(128,128,128)" stroke-width="1" opacity="1.0" d="M 398.5 656.0 L 406.5 675.0 L 411.5 661.0 L 417.0 674.5 L 407.0 675.5 L 410.0 685.5 L 397.5 692.0 L 396.5 678.0 L 394.0 678.5 L 394.0 687.5 Q 393.0 692.0 395.5 693.0 L 397.0 693.5 Q 396.5 697.5 399.5 698.0 L 407.0 702.5 L 397.5 703.0 L 397.0 698.5 L 395.5 695.0 L 394.5 699.0 L 391.5 695.0 L 384.5 699.0 L 379.0 685.5 L 380.5 685.0 L 389.5 691.0 L 389.0 689.5 L 384.0 678.5 L 394.0 677.5 Q 395.5 672.0 393.0 670.5 L 394.5 670.0 L 396.5 671.0 L 398.5 656.0 Z" /><path desc="l 3 p 60" fill="rgb(128,128,128)" stroke="rgb(128,128,128)" stroke-width="1" opacity="1.0" d="M 672.5 656.0 L 674.5 671.0 L 677.5 670.0 L 677.0 671.5 L 677.5 678.0 L 687.0 678.5 L 681.0 690.5 L 682.5 691.0 L 691.5 685.0 L 691.0 686.5 L 686.5 699.0 L 679.5 695.0 L 676.5 699.0 L 675.5 695.0 L 674.0 698.5 L 673.5 703.0 L 664.0 702.5 L 674.0 695.5 L 674.5 693.0 L 677.0 691.5 L 676.5 678.0 L 674.0 678.5 L 673.5 692.0 L 661.0 685.5 L 664.0 675.5 L 654.0 674.5 L 659.5 661.0 L 664.5 675.0 L 672.5 656.0 Z" /><path desc="l 0 p 57" fill="rgb(0,0,255)" stroke="rgb(0,0,255)" stroke-width="1" opacity="1.0" d="M 487.5 660.0 L 488.0 665.5 L 486.0 666.5 Q 487.3 669.3 488.5 667.0 L 502.0 675.5 L 501.5 677.0 L 504.0 678.5 L 499.5 681.0 L 496.0 676.5 L 499.0 675.5 L 493.5 673.0 L 494.5 676.0 L 488.0 675.5 Q 486.8 670.8 489.0 669.5 L 484.5 668.0 L 485.0 669.5 L 487.0 675.5 L 472.5 677.0 L 483.0 665.5 L 487.5 660.0 Z" /><path desc="l 0 p 58" fill="rgb(0,0,255)" stroke="rgb(0,0,255)" stroke-width="1" opacity="1.0" d="M 534.5 660.0 L 542.0 663.5 Q 539.7 666.7 533.5 666.0 L 529.0 663.5 L 534.5 660.0 Z" /><path desc="l 3 p 61" fill="rgb(128,128,128)" stroke="rgb(128,128,128)" stroke-width="1" opacity="1.0" d="M 301.5 670.0 L 345.0 702.5 L 324.5 703.0 L 301.5 670.0 Z" /><path desc="l 3 p 62" fill="rgb(128,128,128)" stroke="rgb(128,128,128)" stroke-width="1" opacity="1.0" d="M 769.5 670.0 L 768.0 672.5 L 746.5 703.0 L 726.0 702.5 L 769.5 670.0 Z" /><path desc="l 3 p 63" fill="rgb(128,128,128)" stroke="rgb(128,128,128)" stroke-width="1" opacity="1.0" d="M 379.5 673.0 L 382.0 674.5 L 383.0 678.5 L 378.5 679.0 L 378.0 676.5 L 379.5 673.0 Z" /><path desc="l 3 p 64" fill="rgb(128,128,128)" stroke="rgb(128,128,128)" stroke-width="1" opacity="1.0" d="M 690.5 673.0 L 692.0 673.5 L 693.0 678.5 L 688.5 679.0 L 688.0 676.5 L 690.5 673.0 Z" /><path desc="l 3 p 65" fill="rgb(128,128,128)" stroke="rgb(128,128,128)" stroke-width="1" opacity="1.0" d="M 507.5 675.0 L 509.0 675.5 L 506.5 677.0 L 507.5 675.0 Z" /><path desc="l 3 p 66" fill="rgb(128,128,128)" stroke="rgb(128,128,128)" stroke-width="1" opacity="1.0" d="M 562.5 675.0 L 565.0 676.5 L 563.5 677.0 L 562.5 675.0 Z" /><path desc="l 3 p 67" fill="rgb(128,128,128)" stroke="rgb(128,128,128)" stroke-width="1" opacity="1.0" d="M 387.5 676.0 L 391.0 676.5 L 387.5 677.0 L 387.5 676.0 Z" /><path desc="l 3 p 68" fill="rgb(128,128,128)" stroke="rgb(128,128,128)" stroke-width="1" opacity="1.0" d="M 680.5 676.0 L 684.0 676.5 L 680.5 677.0 L 680.5 676.0 Z" /><path desc="l 3 p 69" fill="rgb(128,128,128)" stroke="rgb(128,128,128)" stroke-width="1" opacity="1.0" d="M 506.5 678.0 L 510.0 680.5 L 508.5 680.0 L 506.5 678.0 Z" /><path desc="l 3 p 70" fill="rgb(128,128,128)" stroke="rgb(128,128,128)" stroke-width="1" opacity="1.0" d="M 564.5 678.0 L 563.5 680.0 L 561.5 681.0 L 562.5 679.0 L 564.5 678.0 Z" /><path desc="l 3 p 71" fill="rgb(128,128,128)" stroke="rgb(128,128,128)" stroke-width="1" opacity="1.0" d="M 534.5 682.0 L 537.0 682.5 L 535.5 685.0 L 534.5 682.0 Z" /><path desc="l 3 p 72" fill="rgb(128,128,128)" stroke="rgb(128,128,128)" stroke-width="1" opacity="1.0" d="M 504.5 685.0 L 508.0 685.5 L 506.0 686.5 L 520.0 702.5 L 499.5 703.0 L 495.0 692.5 L 505.0 686.5 L 504.5 685.0 Z" /><path desc="l 3 p 73" fill="rgb(128,128,128)" stroke="rgb(128,128,128)" stroke-width="1" opacity="1.0" d="M 563.5 685.0 L 567.0 685.5 Q 564.8 686.8 567.5 688.0 L 576.0 692.5 L 571.5 703.0 L 551.0 702.5 L 565.0 686.5 L 563.5 685.0 Z" /><path desc="l 3 p 74" fill="rgb(128,128,128)" stroke="rgb(128,128,128)" stroke-width="1" opacity="1.0" d="M 523.5 688.0 L 535.5 695.0 L 547.5 688.0 L 546.5 690.0 L 535.5 697.0 L 528.0 691.5 Q 523.7 690.7 523.5 688.0 Z" /><path desc="l 3 p 75" fill="rgb(128,128,128)" stroke="rgb(128,128,128)" stroke-width="1" opacity="1.0" d="M 486.5 689.0 L 488.0 689.5 L 488.5 695.0 L 491.5 694.0 L 483.5 703.0 L 475.0 702.5 L 486.0 696.5 L 481.5 696.0 Q 480.3 698.3 475.5 697.0 L 475.5 696.0 L 486.5 689.0 Z" /><path desc="l 3 p 76" fill="rgb(128,128,128)" stroke="rgb(128,128,128)" stroke-width="1" opacity="1.0" d="M 349.5 696.0 L 355.5 703.0 L 349.0 702.5 L 349.5 696.0 Z" /><path desc="l 3 p 77" fill="rgb(128,128,128)" stroke="rgb(128,128,128)" stroke-width="1" opacity="1.0" d="M 721.5 696.0 L 722.0 702.5 L 715.5 703.0 L 721.5 696.0 Z" /><path desc="l 3 p 78" fill="rgb(128,128,128)" stroke="rgb(128,128,128)" stroke-width="1" opacity="1.0" d="M 467.5 698.0 L 472.0 698.5 L 467.0 701.5 L 461.5 703.0 L 451.5 703.0 L 451.0 701.5 L 456.5 700.0 L 467.5 698.0 Z" /><path desc="l 3 p 79" fill="rgb(128,128,128)" stroke="rgb(128,128,128)" stroke-width="1" opacity="1.0" d="M 599.5 698.0 L 614.5 700.0 L 620.0 701.5 L 619.5 703.0 L 610.5 703.0 L 604.5 702.0 L 601.0 699.5 L 599.5 698.0 Z" /><path desc="l 3 p 80" fill="rgb(128,128,128)" stroke="rgb(128,128,128)" stroke-width="1" opacity="1.0" d="M 446.5 701.0 L 449.0 701.5 L 445.5 703.0 L 439.5 703.0 L 439.5 702.0 Q 445.0 703.5 446.5 701.0 Z" /><path desc="l 3 p 81" fill="rgb(128,128,128)" stroke="rgb(128,128,128)" stroke-width="1" opacity="1.0" d="M 622.5 701.0 L 631.0 702.5 L 622.5 703.0 L 622.5 701.0 Z" /></svg>