<svg width="896" height="703" version="1.1" xmlns="http://www.w3.org/2000/svg" desc="Created with ImageTracer.java version 1.1.2" ><path desc="l 1 p 0" fill="rgb(0,0,0)" stroke="rgb(0,0,0)" stroke-width="1" opacity="0.0" d="M 0.5 0.0 L 896.0 0.5 L 895.5 703.0 L 0.0 702.5 L 0.5 0.0 Z" /><path desc="l 0 p 0" fill="rgb(128,128,128)" stroke="rgb(128,128,128)" stroke-width="1" opacity="1.0" d="M 289.5 161.0 L 497.5 161.0 L 549.5 161.0 L 562.5 161.0 Q 567.8 159.8 569.0 162.5 L 707.0 402.5 L 567.5 643.0 L 359.5 643.0 L 307.5 643.0 L 294.5 643.0 Q 289.3 644.3 288.0 641.5 L 150.0 401.5 L 289.5 161.0 Z" /><path desc="l 1 p 1" fill="rgb(0,0,0)" stroke="rgb(0,0,0)" stroke-width="1" opacity="0.0" d="M 426.5 177.0 L 481.0 180.5 L 495.5 210.0 L 510.5 206.0 L 549.5 192.0 L 557.0 229.5 L 559.0 239.5 L 560.0 247.5 L 532.5 250.0 L 532.0 247.5 L 547.0 197.5 L 539.0 204.5 L 509.5 236.0 L 508.0 235.5 L 495.5 211.0 L 491.0 212.5 L 490.5 214.0 L 483.5 215.0 L 472.5 219.0 L 428.5 234.0 L 385.5 219.0 L 375.0 215.5 L 366.0 213.5 L 365.5 212.0 L 361.5 211.0 L 348.5 236.0 L 339.0 227.5 L 310.5 197.0 L 310.0 198.5 L 325.0 249.5 L 322.5 250.0 Q 320.8 247.3 314.5 249.0 L 296.5 248.0 L 294.5 256.0 L 247.0 297.5 L 234.5 361.0 L 228.5 364.0 L 210.0 336.5 L 237.0 284.5 L 262.5 246.0 L 295.5 248.0 Q 298.1 246.6 297.5 242.0 L 299.5 232.0 L 307.5 192.0 L 335.5 202.0 L 361.5 210.0 L 376.5 180.0 L 416.5 178.0 L 422.5 178.0 L 426.5 177.0 Z" /><path desc="l 0 p 1" fill="rgb(128,128,128)" stroke="rgb(128,128,128)" stroke-width="1" opacity="1.0" d="M 427.5 193.0 L 488.0 212.5 L 474.5 213.0 L 469.5 212.0 L 460.0 211.5 L 425.5 209.0 L 420.5 210.0 L 411.0 210.5 L 390.5 212.0 L 369.5 213.0 L 369.5 212.0 L 427.5 193.0 Z" /><path desc="l 1 p 2" fill="rgb(0,0,0)" stroke="rgb(0,0,0)" stroke-width="1" opacity="0.0" d="M 419.5 237.0 Q 425.6 236.4 428.5 239.0 Q 431.4 236.4 437.5 237.0 L 456.5 254.0 L 464.0 260.5 Q 464.8 262.8 468.5 262.0 L 518.5 245.0 L 520.0 248.5 L 521.0 255.5 L 524.0 267.5 L 527.0 284.5 L 529.5 294.0 Q 529.0 299.5 532.5 301.0 L 554.0 307.5 L 564.0 310.5 L 568.0 312.5 Q 568.1 320.4 573.0 323.5 Q 577.0 324.5 576.0 330.5 L 570.5 353.0 L 569.0 360.5 L 567.5 364.0 L 539.0 338.5 L 530.5 300.0 L 506.5 292.0 L 502.5 329.0 Q 503.1 337.6 500.5 343.0 L 480.5 312.0 L 459.5 311.0 L 444.0 309.5 L 484.0 280.5 L 474.5 270.0 L 468.5 265.0 Q 467.8 262.3 463.5 263.0 L 428.5 275.0 L 401.5 266.0 L 390.5 263.0 L 373.0 279.5 L 374.5 282.0 L 413.0 309.5 L 397.5 311.0 L 376.0 312.5 L 356.5 343.0 Q 353.9 337.6 354.5 329.0 L 350.5 292.0 L 326.0 300.5 L 321.0 327.5 L 319.0 335.5 Q 317.6 341.6 312.5 344.0 L 289.5 364.0 L 288.0 360.5 L 286.5 354.0 L 281.0 326.5 L 285.5 322.0 L 287.5 318.0 L 290.5 311.0 L 316.5 303.0 L 322.5 301.0 Q 326.5 301.5 327.0 298.5 L 334.5 261.0 L 336.5 251.0 Q 335.9 246.4 338.5 245.0 L 376.0 257.5 L 391.5 262.0 L 419.5 237.0 Z" /><path desc="l 1 p 3" fill="rgb(0,0,0)" stroke="rgb(0,0,0)" stroke-width="1" opacity="0.0" d="M 587.5 246.0 Q 594.3 244.3 596.0 247.5 L 619.5 284.0 L 647.0 336.5 L 628.5 364.0 L 622.0 360.5 L 620.0 345.5 L 614.0 318.5 L 611.0 304.5 L 610.0 299.5 L 608.5 296.0 L 562.0 255.5 L 561.0 248.5 L 578.5 247.0 L 584.5 247.0 L 587.5 246.0 Z" /><path desc="l 1 p 4" fill="rgb(0,0,0)" stroke="rgb(0,0,0)" stroke-width="1" opacity="0.0" d="M 294.5 257.0 L 294.0 258.5 L 286.0 300.5 L 284.0 313.5 L 283.0 315.5 L 281.5 319.0 L 277.5 323.0 L 236.5 358.0 L 237.0 356.5 L 254.0 320.5 Q 260.0 305.5 269.5 294.0 L 294.5 257.0 Z" /><path desc="l 1 p 5" fill="rgb(0,0,0)" stroke="rgb(0,0,0)" stroke-width="1" opacity="0.0" d="M 562.5 257.0 L 587.5 294.0 Q 596.9 305.1 602.5 320.0 L 621.0 357.5 L 618.5 356.0 L 574.0 317.5 L 562.5 257.0 Z" /><path desc="l 1 p 6" fill="rgb(0,0,0)" stroke="rgb(0,0,0)" stroke-width="1" opacity="0.0" d="M 422.5 309.0 L 435.0 309.5 L 442.0 310.5 L 433.0 317.5 L 427.5 320.0 L 415.0 310.5 L 422.5 309.0 Z" /><path desc="l 1 p 7" fill="rgb(0,0,0)" stroke="rgb(0,0,0)" stroke-width="1" opacity="0.0" d="M 355.5 344.0 L 357.0 352.5 L 358.0 360.5 L 342.5 368.0 L 343.0 366.5 Q 347.7 353.7 355.5 344.0 Z" /><path desc="l 1 p 8" fill="rgb(0,0,0)" stroke="rgb(0,0,0)" stroke-width="1" opacity="0.0" d="M 501.5 344.0 L 515.0 367.5 L 513.5 368.0 L 499.0 360.5 L 500.0 353.5 L 501.5 344.0 Z" /><path desc="l 1 p 9" fill="rgb(0,0,0)" stroke="rgb(0,0,0)" stroke-width="1" opacity="0.0" d="M 228.5 365.0 L 230.0 365.5 L 245.0 388.5 L 193.0 401.5 L 193.5 403.0 L 245.0 415.5 L 229.5 439.0 L 186.0 402.5 L 228.5 365.0 Z" /><path desc="l 1 p 10" fill="rgb(0,0,0)" stroke="rgb(0,0,0)" stroke-width="1" opacity="0.0" d="M 288.5 365.0 L 291.0 373.5 L 294.0 389.5 L 268.0 401.5 L 268.5 403.0 L 294.0 414.5 L 291.0 429.5 L 288.5 439.0 L 247.0 402.5 L 288.5 365.0 Z" /><path desc="l 1 p 11" fill="rgb(0,0,0)" stroke="rgb(0,0,0)" stroke-width="1" opacity="0.0" d="M 568.5 365.0 L 610.0 402.5 L 568.5 439.0 L 566.0 430.5 L 563.0 414.5 L 589.0 402.5 L 588.5 401.0 L 563.0 389.5 L 566.0 374.5 L 568.5 365.0 Z" /><path desc="l 1 p 12" fill="rgb(0,0,0)" stroke="rgb(0,0,0)" stroke-width="1" opacity="0.0" d="M 627.5 365.0 L 671.0 402.5 L 627.5 439.0 L 612.0 415.5 L 664.0 402.5 L 663.5 401.0 L 645.5 397.0 L 612.0 388.5 L 627.5 365.0 Z" /><path desc="l 1 p 13" fill="rgb(0,0,0)" stroke="rgb(0,0,0)" stroke-width="1" opacity="0.0" d="M 340.5 369.0 L 341.0 370.5 L 325.0 403.5 L 341.0 434.5 L 339.5 435.0 L 295.0 414.5 L 297.0 399.5 Q 294.3 396.2 295.0 389.5 L 340.5 369.0 Z" /><path desc="l 1 p 14" fill="rgb(0,0,0)" stroke="rgb(0,0,0)" stroke-width="1" opacity="0.0" d="M 516.5 369.0 L 562.0 389.5 L 560.0 404.5 L 562.0 414.5 L 516.5 435.0 L 517.0 433.5 L 532.0 401.5 L 520.0 378.5 L 517.0 372.5 L 516.5 369.0 Z" /><path desc="l 1 p 15" fill="rgb(0,0,0)" stroke="rgb(0,0,0)" stroke-width="1" opacity="0.0" d="M 342.5 436.0 L 358.0 443.5 L 357.0 450.5 L 355.5 460.0 Q 346.3 449.5 342.5 436.0 Z" /><path desc="l 1 p 16" fill="rgb(0,0,0)" stroke="rgb(0,0,0)" stroke-width="1" opacity="0.0" d="M 513.5 436.0 L 515.0 436.5 Q 510.0 450.0 501.5 460.0 L 500.0 451.5 L 499.0 443.5 L 513.5 436.0 Z" /><path desc="l 1 p 17" fill="rgb(0,0,0)" stroke="rgb(0,0,0)" stroke-width="1" opacity="0.0" d="M 228.5 440.0 L 235.0 443.5 L 235.0 445.5 L 243.5 488.0 L 246.0 502.5 L 247.0 504.5 Q 246.5 509.5 250.5 510.0 L 296.0 549.5 L 295.0 551.5 L 296.5 556.0 L 324.5 555.0 L 325.0 556.5 L 310.0 606.5 L 323.0 594.5 L 347.5 568.0 L 349.0 568.5 L 361.5 593.0 L 368.5 591.0 L 412.5 606.0 L 423.0 609.5 L 430.5 611.0 L 489.5 591.0 L 495.5 593.0 L 508.5 568.0 L 513.0 571.5 L 546.5 607.0 L 547.0 605.5 L 532.0 555.5 L 548.5 555.0 L 551.5 556.0 L 560.5 556.0 L 562.0 550.5 L 561.5 549.0 L 610.0 506.5 L 618.5 464.0 L 623.0 444.5 L 622.5 443.0 L 628.5 440.0 L 647.0 468.5 L 630.5 500.0 L 617.0 524.5 L 594.5 558.0 L 561.5 556.0 Q 558.9 557.4 559.5 562.0 L 557.5 572.0 L 549.5 612.0 L 512.5 599.0 L 495.5 594.0 L 480.5 624.0 L 423.5 627.0 L 420.5 626.0 L 413.5 626.0 L 393.5 625.0 L 384.0 624.5 L 376.0 623.5 L 361.5 594.0 L 355.5 595.0 L 347.0 598.5 L 307.5 612.0 L 303.0 590.5 L 300.0 572.5 L 297.5 562.0 Q 298.1 557.4 295.5 556.0 L 262.5 558.0 L 240.5 525.0 L 226.5 500.0 L 210.0 468.5 L 228.5 440.0 Z" /><path desc="l 1 p 18" fill="rgb(0,0,0)" stroke="rgb(0,0,0)" stroke-width="1" opacity="0.0" d="M 289.5 440.0 L 318.0 465.5 L 323.5 491.0 L 325.0 498.5 L 327.5 505.0 L 350.5 512.0 L 354.0 480.5 L 355.0 470.5 L 356.5 462.0 L 376.5 492.0 L 414.0 494.5 L 371.5 524.0 L 365.5 518.0 L 359.5 515.0 L 351.5 512.0 L 350.0 519.5 L 348.0 540.5 L 349.5 541.0 L 372.5 525.0 L 391.0 541.5 L 338.5 559.0 L 337.0 555.5 L 335.5 549.0 L 329.5 520.0 L 327.5 510.0 Q 328.1 505.4 325.5 504.0 L 289.0 492.5 Q 289.2 483.8 284.0 480.5 Q 280.3 479.8 281.0 474.5 L 286.0 453.5 L 289.5 440.0 Z" /><path desc="l 1 p 19" fill="rgb(0,0,0)" stroke="rgb(0,0,0)" stroke-width="1" opacity="0.0" d="M 567.5 440.0 L 571.0 452.5 L 576.0 477.5 Q 568.3 481.8 567.5 493.0 L 546.0 499.5 L 536.0 502.5 L 530.0 505.5 L 523.5 539.0 L 520.5 553.0 Q 521.1 557.6 518.5 559.0 L 466.0 541.5 L 478.0 530.5 L 485.5 525.0 L 508.5 541.0 L 509.0 534.5 L 508.0 529.5 L 507.0 520.5 Q 507.8 514.8 505.5 512.0 L 497.5 515.0 Q 492.8 515.3 491.0 518.5 L 484.5 524.0 L 443.0 494.5 L 481.0 491.5 L 500.5 462.0 L 502.0 470.5 L 503.0 480.5 L 506.5 512.0 L 523.5 507.0 L 531.0 503.5 L 536.5 477.0 L 538.0 469.5 Q 538.5 464.0 542.5 462.0 L 567.5 440.0 Z" /><path desc="l 1 p 20" fill="rgb(0,0,0)" stroke="rgb(0,0,0)" stroke-width="1" opacity="0.0" d="M 236.5 446.0 L 283.0 486.5 L 294.0 545.5 L 293.0 545.5 L 268.5 509.0 L 260.5 497.0 L 256.0 487.5 L 236.5 446.0 Z" /><path desc="l 1 p 21" fill="rgb(0,0,0)" stroke="rgb(0,0,0)" stroke-width="1" opacity="0.0" d="M 620.5 446.0 L 620.0 447.5 L 601.0 487.5 L 597.0 496.5 L 588.5 509.0 L 563.5 546.0 L 563.0 541.5 L 571.0 503.5 L 573.0 490.5 L 574.0 488.5 Q 573.5 483.5 577.5 483.0 L 620.5 446.0 Z" /><path desc="l 1 p 22" fill="rgb(0,0,0)" stroke="rgb(0,0,0)" stroke-width="1" opacity="0.0" d="M 427.5 484.0 Q 432.0 483.5 432.5 487.0 L 442.0 493.5 L 433.5 495.0 L 419.5 495.0 L 415.0 493.5 L 427.5 484.0 Z" /><path desc="l 1 p 23" fill="rgb(0,0,0)" stroke="rgb(0,0,0)" stroke-width="1" opacity="0.0" d="M 428.5 529.0 L 465.0 541.5 L 460.5 547.0 L 436.5 568.0 Q 432.9 565.1 425.5 566.0 L 419.5 568.0 L 392.0 542.5 L 392.5 541.0 L 428.5 529.0 Z" /><path desc="l 1 p 24" fill="rgb(0,0,0)" stroke="rgb(0,0,0)" stroke-width="1" opacity="0.0" d="M 428.5 570.0 L 487.0 590.5 L 442.5 594.0 L 422.5 595.0 L 417.5 594.0 L 408.0 593.5 L 370.0 590.5 L 428.5 570.0 Z" /></svg>